<?xml version="1.0" standalone="no"?>
<!DOCTYPE svg PUBLIC "-//W3C//DTD SVG 20010904//EN"
 "http://www.w3.org/TR/2001/REC-SVG-20010904/DTD/svg10.dtd">
<svg version="1.0" xmlns="http://www.w3.org/2000/svg"
 width="69.000000pt" height="69.000000pt" viewBox="0 0 69.000000 69.000000"
 preserveAspectRatio="xMidYMid meet">

<g transform="translate(0.000000,69.000000) scale(0.100000,-0.100000)"
fill="#000000" stroke="none">
<path d="M232 662 c-233 -83 -298 -386 -121 -563 150 -150 408 -120 524 62
108 168 44 393 -137 485 -71 37 -188 43 -266 16z m245 -50 c65 -34 110 -78
140 -140 23 -48 28 -69 27 -132 0 -79 -25 -150 -64 -185 -17 -15 -19 -14 -39
18 -28 46 -85 84 -147 98 -90 21 -203 -31 -252 -116 l-12 -20 -16 20 c-60 76
-80 192 -49 286 23 68 109 158 175 182 63 23 181 18 237 -11z m-82 -383 c22
-6 55 -22 73 -35 34 -26 66 -79 58 -93 -3 -5 -27 -19 -53 -32 -70 -33 -180
-33 -248 1 -27 14 -51 33 -53 42 -5 25 67 97 113 113 49 17 60 18 110 4z"/>
<path d="M315 569 c-108 -30 -124 -181 -24 -231 44 -23 76 -23 116 2 128 78
51 270 -92 229z m92 -61 c16 -15 23 -33 23 -60 0 -87 -107 -117 -156 -43 -21
32 -12 89 19 110 32 22 86 19 114 -7z"/>
</g>
</svg>
